<?xml version="1.0" encoding="utf-8"?>
<!-- Generator: Adobe Illustrator 22.0.0, SVG Export Plug-In . SVG Version: 6.00 Build 0)  -->
<svg version="1.1" id="Layer_1" xmlns="http://www.w3.org/2000/svg" xmlns:xlink="http://www.w3.org/1999/xlink" x="0px" y="0px"
	 viewBox="0 0 15 92.1" style="enable-background:new 0 0 15 92.1;" xml:space="preserve">
<style type="text/css">
	.st0{fill:#C65F38;}
</style>
<g>
	<path class="st0" d="M8.3,58.5c0.5-0.2,0.9-0.4,1.3-0.7c0.5-0.5,0.8-1,0.8-1.7c0-0.4-0.1-0.7-0.4-1c-0.2-0.3-0.6-0.4-1-0.4
		c-0.4,0-0.7,0.1-1,0.4c-0.2,0.2-0.4,0.6-0.8,1.1l-0.6,1c-0.2,0.3-0.4,0.5-0.6,0.7c-0.4,0.3-0.8,0.5-1.2,0.5c-0.6,0-1.1-0.2-1.5-0.6
		c-0.4-0.4-0.6-0.9-0.6-1.6c0-0.3,0.1-0.6,0.2-1c0.1-0.4,0.2-0.6,0.2-0.6c0-0.1,0-0.2-0.1-0.3c-0.1-0.1-0.2-0.1-0.3-0.1V54l2.5-0.3
		V54C4.5,54.2,4,54.5,3.7,55c-0.3,0.4-0.4,0.8-0.4,1.2c0,0.3,0.1,0.6,0.3,0.8c0.2,0.2,0.4,0.4,0.8,0.4c0.3,0,0.6-0.1,0.8-0.3
		c0.2-0.2,0.4-0.5,0.7-0.8l0.6-1c0.4-0.6,0.8-1.1,1.1-1.4c0.3-0.3,0.7-0.4,1.2-0.4c0.6,0,1.1,0.2,1.5,0.7c0.4,0.5,0.6,1.1,0.6,1.8
		c0,0.4-0.1,0.7-0.2,1.1c-0.1,0.4-0.2,0.6-0.2,0.7c0,0.1,0,0.2,0.1,0.3c0.1,0,0.2,0.1,0.3,0.1v0.3l-2.5,0.3V58.5z"/>
	<path class="st0" d="M5.7,48.6c0.2-0.3,0.5-0.5,0.8-0.5c0.1,0,0.2,0,0.3,0.1C6.9,48.3,7,48.4,7,48.6c0,0.1,0,0.3-0.1,0.4
		c-0.1,0.1-0.2,0.2-0.4,0.2l-0.3,0.1c-0.2,0-0.3,0.1-0.4,0.3c-0.1,0.1-0.1,0.3-0.1,0.5c0,0.4,0.2,0.8,0.6,1.1
		c0.4,0.3,0.9,0.4,1.5,0.4c0.6,0,1.1-0.2,1.5-0.5c0.5-0.3,0.7-0.8,0.7-1.3c0-0.4-0.1-0.7-0.4-1.1c-0.1-0.2-0.4-0.4-0.7-0.6L9,47.9
		c0.5,0.2,0.8,0.4,1.1,0.7c0.5,0.5,0.8,1,0.8,1.6c0,0.6-0.2,1.1-0.7,1.6c-0.5,0.5-1.1,0.7-1.9,0.7c-0.8,0-1.5-0.2-2-0.7
		s-0.8-1.1-0.8-1.9C5.3,49.4,5.4,49,5.7,48.6z"/>
	<path class="st0" d="M10.5,47.5c0-0.4-0.1-0.6-0.2-0.7c-0.1-0.1-0.3-0.2-0.6-0.2H7.2c-0.4,0-0.6,0-0.8,0.1
		c-0.2,0.1-0.2,0.2-0.2,0.4c0,0,0,0.1,0,0.2c0,0.1,0,0.1,0,0.2H6c-0.1-0.2-0.2-0.4-0.2-0.7c-0.1-0.2-0.1-0.4-0.2-0.5
		c-0.1-0.2-0.2-0.4-0.2-0.6c0,0,0,0,0,0c0,0,0.1,0,0.1,0h0.9c-0.3-0.2-0.6-0.5-0.8-0.7c-0.2-0.2-0.3-0.5-0.3-0.7
		c0-0.2,0.1-0.4,0.2-0.5c0.1-0.1,0.3-0.2,0.4-0.2c0.2,0,0.3,0,0.4,0.1c0.1,0.1,0.2,0.2,0.2,0.4c0,0.1-0.1,0.3-0.2,0.4
		c-0.1,0.1-0.2,0.3-0.2,0.3c0,0.1,0.1,0.3,0.3,0.5c0.2,0.2,0.4,0.3,0.7,0.3h2.6c0.3,0,0.6-0.1,0.7-0.2c0.1-0.2,0.2-0.4,0.2-0.8h0.2
		v2.8H10.5z"/>
	<path class="st0" d="M6.1,42.6c-0.5-0.5-0.8-1.1-0.8-1.9c0-0.8,0.2-1.4,0.7-1.9c0.5-0.5,1.1-0.7,2-0.7c0.8,0,1.4,0.2,2,0.7
		c0.6,0.5,0.8,1.1,0.8,1.9c0,0.7-0.3,1.3-0.8,1.9c-0.5,0.5-1.2,0.8-2,0.8C7.3,43.4,6.7,43.1,6.1,42.6z M6,41.7
		c0.3,0.4,0.9,0.6,1.8,0.6c0.7,0,1.3-0.2,1.9-0.5c0.6-0.3,0.9-0.7,0.9-1.3c0-0.4-0.2-0.8-0.6-1c-0.4-0.2-0.9-0.3-1.5-0.3
		c-0.7,0-1.3,0.1-1.9,0.4C6,40,5.7,40.4,5.7,40.9C5.7,41.2,5.8,41.5,6,41.7z"/>
	<path class="st0" d="M10.5,37.6c0-0.4-0.1-0.6-0.2-0.7c-0.1-0.1-0.3-0.2-0.6-0.2H4.1c-0.3,0-0.4,0-0.5,0.1
		c-0.2,0.1-0.2,0.2-0.2,0.5c0,0.1,0,0.1,0,0.2c0,0.1,0,0.1,0.1,0.2H3.2c-0.1-0.5-0.3-1.1-0.5-1.9c0,0,0,0,0,0c0,0,0.1,0,0.1,0h6.8
		c0.3,0,0.5-0.1,0.6-0.2c0.1-0.1,0.2-0.4,0.2-0.7h0.2v2.8H10.5z"/>
	<path class="st0" d="M10.5,34.3c0-0.4-0.1-0.6-0.2-0.7c-0.1-0.1-0.3-0.2-0.6-0.2H4.1c-0.3,0-0.4,0-0.5,0.1
		c-0.2,0.1-0.2,0.2-0.2,0.5c0,0.1,0,0.1,0,0.2c0,0.1,0,0.1,0.1,0.2H3.2c-0.1-0.5-0.3-1.1-0.5-1.9c0,0,0,0,0,0c0,0,0.1,0,0.1,0h6.8
		c0.3,0,0.5-0.1,0.6-0.2c0.1-0.1,0.2-0.4,0.2-0.7h0.2v2.8H10.5z"/>
	<path d="M10.5,28.2c0-0.4-0.1-0.7-0.2-0.8c-0.1-0.1-0.4-0.2-0.8-0.2H4.2c-0.4,0-0.7,0.1-0.8,0.2c-0.1,0.1-0.2,0.4-0.2,0.8H3v-3.2
		c0-1.1,0.2-2,0.5-2.7c0.6-1.3,1.7-2,3.4-2c0.6,0,1.1,0.1,1.7,0.4c0.5,0.2,1,0.6,1.3,1.1c0.2,0.3,0.4,0.6,0.5,0.9
		c0.2,0.6,0.3,1.3,0.3,2.2v3.2H10.5z M10.2,25.9c0.1-0.1,0.1-0.3,0.1-0.6c0-0.9-0.2-1.7-0.5-2.3c-0.6-0.9-1.5-1.4-2.8-1.4
		c-1.2,0-2.1,0.4-2.7,1.1c-0.5,0.6-0.8,1.5-0.8,2.5c0,0.3,0,0.4,0.1,0.5C3.5,25.9,3.7,26,3.9,26h5.9C10,26,10.1,25.9,10.2,25.9z"/>
	<path d="M6.1,18.9c-0.5-0.5-0.8-1.1-0.8-1.9c0-0.8,0.2-1.4,0.7-1.9s1.1-0.7,2-0.7c0.8,0,1.4,0.2,2,0.7c0.6,0.5,0.8,1.1,0.8,1.9
		c0,0.7-0.3,1.3-0.8,1.9c-0.5,0.5-1.2,0.8-2,0.8C7.3,19.7,6.7,19.4,6.1,18.9z M6,18c0.3,0.4,0.9,0.6,1.8,0.6c0.7,0,1.3-0.2,1.9-0.5
		c0.6-0.3,0.9-0.7,0.9-1.3c0-0.4-0.2-0.8-0.6-1c-0.4-0.2-0.9-0.3-1.5-0.3c-0.7,0-1.3,0.1-1.9,0.4c-0.6,0.3-0.9,0.7-0.9,1.3
		C5.7,17.5,5.8,17.8,6,18z"/>
	<path d="M5.6,8.7c0,0.2,0.1,0.4,0.1,0.5c0,0.1,0.1,0.2,0.3,0.2c0.1,0,0.2,0,0.3,0c0.1,0,0.2-0.1,0.3-0.1l2.7-1l-2.5-1
		C6.7,7.1,6.5,7.1,6.3,7S6,6.9,6,6.9c-0.1,0-0.2,0-0.3,0.1c0,0.1-0.1,0.2-0.1,0.4H5.4V6h0.2c0,0.1,0.1,0.2,0.1,0.2
		c0.1,0.1,0.2,0.1,0.5,0.3l4.5,1.8c0,0,0.1,0,0.1,0c0,0,0,0,0,0.1c0,0,0,0.1-0.1,0.1L7.3,9.9l3.4,1.4c0,0,0,0,0,0c0,0,0,0,0,0
		c0,0,0,0.1-0.1,0.1l-4.2,1.7c-0.5,0.2-0.7,0.3-0.8,0.4c-0.1,0.1-0.1,0.2-0.2,0.4H5.4v-2.1h0.2c0,0.2,0,0.3,0.1,0.4
		c0,0.1,0.2,0.1,0.3,0.1c0.1,0,0.4-0.1,0.8-0.2C7,12,7.3,11.9,7.7,11.7l1.6-0.7l-2.2-1L7,10c-0.1,0-0.2,0-0.4,0.1
		c-0.2,0.1-0.4,0.2-0.6,0.2c-0.2,0.1-0.3,0.2-0.4,0.3c-0.1,0.1-0.1,0.2-0.1,0.4H5.4V8.7H5.6z"/>
	<path d="M10.5,5.5c0-0.3-0.1-0.5-0.2-0.6C10.2,4.8,10,4.7,9.7,4.7H6.8c-0.2,0-0.4,0-0.5,0.1C6.1,4.9,6,5,6,5.2c0,0,0,0.1,0,0.1
		c0,0,0,0.1,0,0.1H5.9c0-0.2-0.2-0.5-0.4-1.1L5.3,3.8c0,0,0,0,0,0c0,0,0,0,0.1,0h0.8C6,3.4,5.7,3.2,5.6,3C5.4,2.7,5.3,2.4,5.3,2
		c0-0.3,0.1-0.5,0.2-0.7c0.3-0.4,0.8-0.6,1.5-0.6h2.7c0.3,0,0.5-0.1,0.6-0.2c0.1-0.1,0.2-0.3,0.2-0.5h0.2v2.4h-0.2
		c0-0.3-0.1-0.5-0.2-0.6c-0.1-0.1-0.4-0.2-0.8-0.2H7.1c-0.3,0-0.6,0.1-0.8,0.2C6.1,2,6,2.2,6,2.5C6,2.8,6.1,3,6.2,3.2
		c0.1,0.1,0.2,0.3,0.4,0.5h3.2c0.3,0,0.5-0.1,0.5-0.2c0.1-0.1,0.1-0.3,0.2-0.6h0.2v2.5H10.5z"/>
</g>
<path d="M14.8,84c-0.3-0.3-0.7-0.3-1,0l-5.6,5.6V65.4c0-0.4-0.3-0.7-0.7-0.7c-0.4,0-0.7,0.3-0.7,0.7v24.3L1.2,84
	c-0.3-0.3-0.7-0.3-1,0s-0.3,0.7,0,1L7,91.7c0.1,0.1,0.3,0.2,0.5,0.2c0.2,0,0.4-0.1,0.5-0.2l6.7-6.8C15,84.7,15,84.3,14.8,84z"/>
</svg>
