<?xml version="1.0" encoding="utf-8"?>
<!-- Generator: Adobe Illustrator 22.0.0, SVG Export Plug-In . SVG Version: 6.00 Build 0)  -->
<svg version="1.1" id="Layer_1" xmlns="http://www.w3.org/2000/svg" xmlns:xlink="http://www.w3.org/1999/xlink" x="0px" y="0px"
	 viewBox="0 0 23.4 3.8" style="enable-background:new 0 0 23.4 3.8;" xml:space="preserve">
<style type="text/css">
	.st0{fill:#FD4700;}
	.st1{fill:#C9C9C9;}
</style>
<polygon class="st0" points="1.9,0 2.6,1.2 3.9,1.4 2.9,2.4 3.2,3.8 1.9,3.1 0.7,3.8 1,2.4 0,1.4 1.3,1.2 "/>
<polygon class="st0" points="6.8,0 7.4,1.2 8.8,1.4 7.8,2.4 8,3.8 6.8,3.1 5.6,3.8 5.8,2.4 4.9,1.4 6.2,1.2 "/>
<polygon class="st0" points="11.7,0 12.3,1.2 13.7,1.4 12.7,2.4 12.9,3.8 11.7,3.1 10.5,3.8 10.7,2.4 9.7,1.4 11.1,1.2 "/>
<polygon class="st0" points="16.6,0 17.2,1.2 18.5,1.4 17.6,2.4 17.8,3.8 16.6,3.1 15.4,3.8 15.6,2.4 14.6,1.4 16,1.2 "/>
<polygon class="st1" points="21.4,0 22.1,1.2 23.4,1.4 22.4,2.4 22.7,3.8 21.4,3.1 20.2,3.8 20.5,2.4 19.5,1.4 20.8,1.2 "/>
<polygon class="st0" points="21.4,3.1 21.4,0 20.8,1.2 19.5,1.4 20.5,2.4 20.2,3.8 "/>
</svg>
